REM MD5 75762ec8fc5a2850a405a8a1953740aa
FILE "Jet Ace (Europe).bin" BINARY
  TRACK 01 MODE2/2352
    INDEX 01 00:00:00
  TRACK 02 AUDIO
    INDEX 00 09:28:07
    INDEX 01 09:30:07
  TRACK 03 AUDIO
    INDEX 00 12:20:59
    INDEX 01 12:22:59
REM LEADOUT 20:10:32
